<svg xmlns="http://www.w3.org/2000/svg" xmlns:xlink="http://www.w3.org/1999/xlink" width="500" zoomAndPan="magnify" viewBox="0 0 375 187.499995" height="250" preserveAspectRatio="xMidYMid meet" version="1.0"><defs><g/></defs><path fill="#ffffff" d="M 33.929688 111.09375 L 34.558594 111.714844 L 34.621094 111.777344 C 36.570312 113.796875 36.550781 117.050781 34.558594 119.042969 C 32.566406 121.035156 29.3125 121.054688 27.292969 119.105469 L 27.230469 119.042969 L 26.605469 118.421875 L 24.898438 116.710938 C 22.886719 114.695312 22.886719 111.398438 24.898438 109.378906 C 26.910156 107.367188 30.210938 107.367188 32.226562 109.378906 Z M 68.488281 82.738281 L 69.09375 82.132812 L 69.789062 81.433594 L 76.175781 75.046875 C 78.1875 73.035156 78.1875 69.738281 76.175781 67.71875 C 74.15625 65.703125 70.859375 65.703125 68.847656 67.71875 L 62.460938 74.105469 L 61.765625 74.804688 L 57.496094 79.074219 C 55.484375 81.085938 55.484375 84.382812 57.496094 86.402344 L 61.160156 90.066406 L 61.816406 90.714844 L 68.898438 97.800781 C 70.910156 99.8125 74.203125 99.8125 76.222656 97.800781 C 78.234375 95.789062 78.234375 92.484375 76.222656 90.472656 L 69.140625 83.386719 Z M 25.191406 67.765625 L 25.191406 67.757812 C 27.203125 65.746094 30.503906 65.746094 32.515625 67.757812 L 76.125 111.394531 C 78.144531 113.40625 78.144531 116.710938 76.125 118.722656 C 74.113281 120.734375 70.820312 120.734375 68.800781 118.722656 L 25.191406 75.089844 C 23.179688 73.074219 23.179688 69.78125 25.191406 67.765625 Z M 25.128906 88.652344 C 27.140625 86.640625 30.433594 86.640625 32.453125 88.652344 L 37.421875 93.621094 L 48.164062 104.371094 L 55.246094 111.457031 C 57.261719 113.46875 57.261719 116.773438 55.246094 118.785156 C 53.226562 120.796875 49.933594 120.796875 47.921875 118.785156 L 40.839844 111.699219 L 30.09375 100.949219 L 25.128906 95.980469 C 23.117188 93.96875 23.117188 90.667969 25.128906 88.652344 Z M 25.128906 88.652344 " fill-opacity="1" fill-rule="evenodd"/><g fill="#ffffff" fill-opacity="1"><g transform="translate(114.528867, 106.994923)"><g><path d="M 14.03125 0.546875 C 11.6875 0.546875 9.613281 0.144531 7.8125 -0.65625 C 6.019531 -1.46875 4.601562 -2.628906 3.5625 -4.140625 C 2.53125 -5.648438 2 -7.484375 1.96875 -9.640625 L 8.140625 -9.640625 C 8.203125 -8.148438 8.738281 -6.894531 9.75 -5.875 C 10.769531 -4.851562 12.179688 -4.34375 13.984375 -4.34375 C 15.535156 -4.34375 16.769531 -4.710938 17.6875 -5.453125 C 18.601562 -6.203125 19.0625 -7.203125 19.0625 -8.453125 C 19.0625 -9.765625 18.65625 -10.785156 17.84375 -11.515625 C 17.039062 -12.242188 15.96875 -12.835938 14.625 -13.296875 C 13.28125 -13.753906 11.847656 -14.242188 10.328125 -14.765625 C 7.859375 -15.617188 5.976562 -16.710938 4.6875 -18.046875 C 3.394531 -19.390625 2.75 -21.175781 2.75 -23.40625 C 2.71875 -25.289062 3.164062 -26.910156 4.09375 -28.265625 C 5.019531 -29.617188 6.289062 -30.671875 7.90625 -31.421875 C 9.519531 -32.171875 11.378906 -32.546875 13.484375 -32.546875 C 15.617188 -32.546875 17.5 -32.160156 19.125 -31.390625 C 20.757812 -30.628906 22.039062 -29.5625 22.96875 -28.1875 C 23.894531 -26.820312 24.390625 -25.195312 24.453125 -23.3125 L 18.1875 -23.3125 C 18.15625 -24.4375 17.71875 -25.429688 16.875 -26.296875 C 16.039062 -27.171875 14.878906 -27.609375 13.390625 -27.609375 C 12.109375 -27.640625 11.03125 -27.328125 10.15625 -26.671875 C 9.289062 -26.015625 8.859375 -25.0625 8.859375 -23.8125 C 8.859375 -22.75 9.191406 -21.90625 9.859375 -21.28125 C 10.535156 -20.65625 11.453125 -20.128906 12.609375 -19.703125 C 13.765625 -19.273438 15.09375 -18.816406 16.59375 -18.328125 C 18.175781 -17.773438 19.617188 -17.132812 20.921875 -16.40625 C 22.234375 -15.675781 23.285156 -14.707031 24.078125 -13.5 C 24.878906 -12.300781 25.28125 -10.753906 25.28125 -8.859375 C 25.28125 -7.191406 24.851562 -5.640625 24 -4.203125 C 23.144531 -2.773438 21.878906 -1.625 20.203125 -0.75 C 18.523438 0.113281 16.46875 0.546875 14.03125 0.546875 Z M 14.03125 0.546875 "/></g></g></g><g fill="#ffffff" fill-opacity="1"><g transform="translate(148.884272, 106.994923)"><g><path d="M 18.09375 0.546875 C 14.894531 0.546875 12.097656 -0.148438 9.703125 -1.546875 C 7.316406 -2.953125 5.445312 -4.894531 4.09375 -7.375 C 2.738281 -9.863281 2.0625 -12.738281 2.0625 -16 C 2.0625 -19.257812 2.738281 -22.128906 4.09375 -24.609375 C 5.445312 -27.097656 7.316406 -29.039062 9.703125 -30.4375 C 12.097656 -31.84375 14.894531 -32.546875 18.09375 -32.546875 C 21.269531 -32.546875 24.0625 -31.84375 26.46875 -30.4375 C 28.875 -29.039062 30.742188 -27.097656 32.078125 -24.609375 C 33.421875 -22.128906 34.09375 -19.257812 34.09375 -16 C 34.09375 -12.738281 33.421875 -9.863281 32.078125 -7.375 C 30.742188 -4.894531 28.875 -2.953125 26.46875 -1.546875 C 24.0625 -0.148438 21.269531 0.546875 18.09375 0.546875 Z M 18.09375 -4.703125 C 21.144531 -4.703125 23.578125 -5.707031 25.390625 -7.71875 C 27.203125 -9.726562 28.109375 -12.488281 28.109375 -16 C 28.109375 -19.5 27.203125 -22.253906 25.390625 -24.265625 C 23.578125 -26.273438 21.144531 -27.28125 18.09375 -27.28125 C 15.050781 -27.28125 12.613281 -26.273438 10.78125 -24.265625 C 8.957031 -22.253906 8.046875 -19.5 8.046875 -16 C 8.046875 -12.488281 8.957031 -9.726562 10.78125 -7.71875 C 12.613281 -5.707031 15.050781 -4.703125 18.09375 -4.703125 Z M 18.09375 -4.703125 "/></g></g></g><g fill="#ffffff" fill-opacity="1"><g transform="translate(192.101481, 106.994923)"><g><path d="M 17.59375 0.546875 C 14.363281 0.546875 11.585938 -0.144531 9.265625 -1.53125 C 6.953125 -2.914062 5.171875 -4.847656 3.921875 -7.328125 C 2.679688 -9.816406 2.0625 -12.691406 2.0625 -15.953125 C 2.0625 -19.210938 2.679688 -22.09375 3.921875 -24.59375 C 5.171875 -27.09375 6.953125 -29.039062 9.265625 -30.4375 C 11.585938 -31.84375 14.363281 -32.546875 17.59375 -32.546875 C 21.4375 -32.546875 24.582031 -31.59375 27.03125 -29.6875 C 29.488281 -27.78125 31.019531 -25.101562 31.625 -21.65625 L 25.1875 -21.65625 C 24.789062 -23.394531 23.941406 -24.757812 22.640625 -25.75 C 21.347656 -26.738281 19.632812 -27.234375 17.5 -27.234375 C 14.550781 -27.234375 12.238281 -26.226562 10.5625 -24.21875 C 8.882812 -22.207031 8.046875 -19.453125 8.046875 -15.953125 C 8.046875 -12.441406 8.882812 -9.6875 10.5625 -7.6875 C 12.238281 -5.695312 14.550781 -4.703125 17.5 -4.703125 C 19.632812 -4.703125 21.347656 -5.164062 22.640625 -6.09375 C 23.941406 -7.03125 24.789062 -8.320312 25.1875 -9.96875 L 31.625 -9.96875 C 31.019531 -6.675781 29.488281 -4.097656 27.03125 -2.234375 C 24.582031 -0.378906 21.4375 0.546875 17.59375 0.546875 Z M 17.59375 0.546875 "/></g></g></g><g fill="#ffffff" fill-opacity="1"><g transform="translate(232.852006, 106.994923)"><g><path d="M 3.109375 0 L 3.109375 -32 L 8.953125 -32 L 8.953125 0 Z M 3.109375 0 "/></g></g></g><g fill="#ffffff" fill-opacity="1"><g transform="translate(251.996137, 106.994923)"><g><path d="M 1.046875 0 L 12.75 -32 L 19.328125 -32 L 31.03125 0 L 24.8125 0 L 22.25 -7.40625 L 9.78125 -7.40625 L 7.171875 0 Z M 11.375 -11.96875 L 20.65625 -11.96875 L 16 -25.28125 Z M 11.375 -11.96875 "/></g></g></g><g fill="#ffffff" fill-opacity="1"><g transform="translate(291.102184, 106.994923)"><g><path d="M 3.109375 0 L 3.109375 -32 L 8.953125 -32 L 8.953125 -4.578125 L 23.125 -4.578125 L 23.125 0 Z M 3.109375 0 "/></g></g></g><g fill="#ffffff" fill-opacity="1"><g transform="translate(323.356331, 106.994923)"><g><path d="M 3.109375 0 L 3.109375 -32 L 8.953125 -32 L 8.953125 -4.578125 L 23.125 -4.578125 L 23.125 0 Z M 3.109375 0 "/></g></g></g></svg>